<?xml version="1.0" standalone="no"?>
<!DOCTYPE svg PUBLIC "-//W3C//DTD SVG 20010904//EN"
 "http://www.w3.org/TR/2001/REC-SVG-20010904/DTD/svg10.dtd">
<svg version="1.0" xmlns="http://www.w3.org/2000/svg"
 width="500.000000pt" height="500.000000pt" viewBox="0 0 500.000000 500.000000"
 preserveAspectRatio="xMidYMid meet">
<metadata>
Created by potrace 1.14, written by Peter Selinger 2001-2017
</metadata>
<g transform="translate(0.000000,500.000000) scale(0.100000,-0.100000)"
fill="#000000" stroke="none">
<path d="M2460 4901 l0 -100 -47 -3 -48 -3 -1 -40 c0 -54 5 -67 27 -60 27 9
35 -19 34 -115 l-1 -85 -98 0 c-87 0 -100 -2 -112 -20 -7 -11 -61 -153 -119
-315 -109 -305 -124 -341 -153 -375 -9 -11 -64 -51 -122 -89 -93 -61 -251
-174 -303 -216 -153 -125 -241 -210 -290 -283 -83 -123 -133 -306 -131 -482 2
-140 131 -516 180 -523 20 -3 20 -2 3 100 -33 192 -44 307 -42 423 3 170 131
436 282 585 59 59 219 183 403 314 l67 47 56 -54 c61 -59 111 -89 194 -118 73
-25 232 -53 333 -58 37 -2 6 -26 -34 -26 -35 0 -41 -3 -44 -22 l-4 -23 220 0
220 0 0 24 c0 21 -5 24 -36 24 -19 0 -38 3 -41 6 -4 3 6 6 21 6 14 0 54 9 87
20 34 12 62 20 64 18 5 -6 34 -133 44 -193 18 -104 21 -131 36 -315 5 -66 14
-358 15 -477 0 -42 1 -43 34 -43 38 0 37 -2 57 95 7 33 14 67 16 75 23 107 23
507 -1 635 -2 11 -7 40 -11 65 -4 25 -23 92 -41 149 -38 116 -40 99 22 169
l22 24 40 -37 c23 -20 74 -76 114 -123 40 -48 83 -98 95 -111 30 -34 138 -216
173 -295 32 -70 63 -171 84 -276 3 -14 8 -36 11 -50 7 -30 18 -154 19 -195 0
-42 -14 -246 -19 -276 -4 -27 -16 -150 -19 -189 -1 -22 4 -25 36 -28 l37 -3
20 68 c94 318 98 343 95 523 -2 157 -15 242 -50 348 -81 240 -242 458 -524
707 -25 22 -46 46 -46 55 -3 44 -200 708 -214 723 -9 10 -26 19 -38 20 -24 1
-24 1 -24 104 1 83 4 93 32 86 18 -5 20 0 20 50 l0 56 -47 3 -48 3 0 98 1 97
-253 0 -253 0 0 -99z m-36 -566 c0 -75 2 -85 18 -85 17 0 18 -12 18 -145 l0
-144 63 -3 62 -3 0 -175 0 -175 -45 -5 c-37 -4 -46 -9 -48 -27 -2 -13 -5 -23
-7 -23 -22 0 -178 43 -205 56 -36 18 -190 169 -190 186 0 6 51 149 112 319
l113 309 55 0 55 0 -1 -85z m630 -190 c35 -127 47 -167 83 -290 22 -79 23 -73
-3 -125 -39 -76 -40 -77 -59 -39 -20 38 -30 49 -67 73 -27 17 -28 22 -43 154
-3 24 -1 42 5 42 6 0 10 56 10 145 0 122 2 145 15 145 8 0 15 8 15 17 0 29 7
10 44 -122z m-163 -187 c0 -2 3 -52 6 -111 4 -84 1 -123 -13 -173 -9 -35 -19
-62 -22 -59 -3 2 -5 81 -6 175 -1 156 0 170 17 170 9 0 17 -1 18 -2z m72 -343
c23 -49 22 -52 -20 -66 -50 -17 -65 -19 -77 -11 -6 4 5 9 24 12 31 4 35 9 36
35 2 56 4 65 12 65 5 0 16 -16 25 -35z m-385 -72 c-10 -2 -26 -2 -35 0 -10 3
-2 5 17 5 19 0 27 -2 18 -5z"/>
<path d="M2778 3185 c-2 -1 -46 -6 -98 -10 -52 -4 -111 -8 -130 -10 -19 -2
-78 -6 -130 -10 -52 -4 -113 -9 -135 -11 -22 -2 -84 -6 -138 -10 -122 -7 -125
-8 -137 -20 -9 -9 -40 -98 -476 -1393 -142 -422 -244 -710 -260 -735 -38 -57
-81 -93 -137 -113 -27 -10 -47 -23 -48 -32 -1 -9 -2 -27 -4 -41 -1 -14 -6 -61
-10 -105 -3 -44 -8 -92 -11 -106 l-4 -26 453 -2 c248 0 497 -2 551 -4 92 -2
99 -1 102 18 5 31 13 112 20 196 8 93 12 90 -145 94 -113 3 -157 15 -167 48
-7 23 -7 80 0 116 10 46 80 286 85 292 12 14 156 23 406 24 143 1 267 0 276
-2 11 -3 26 -48 52 -157 67 -276 57 -295 -165 -322 -75 -9 -77 -10 -82 -15 -4
-4 -11 -80 -21 -239 -4 -66 5 -72 103 -66 214 14 381 18 712 17 195 -1 374 -3
397 -4 51 -4 47 -12 64 150 10 94 10 125 1 136 -7 8 -39 20 -71 26 -105 21
-165 86 -210 229 -25 77 -123 420 -155 542 -13 52 -32 122 -41 155 -25 93 -66
248 -70 265 -2 8 -15 56 -28 105 -14 50 -31 109 -36 133 -6 23 -16 61 -22 85
-6 23 -12 49 -14 57 -6 22 -78 294 -119 450 -20 74 -43 164 -51 200 -11 46
-22 70 -38 79 -21 13 -62 23 -69 16z m-393 -637 c3 -3 7 -14 9 -24 2 -11 23
-98 46 -194 23 -96 43 -182 45 -190 12 -56 30 -131 55 -235 17 -66 32 -129 34
-140 5 -18 -1 -20 -72 -24 -42 -2 -156 -4 -252 -5 -160 -1 -175 1 -172 16 6
38 235 784 243 794 9 11 53 13 64 2z"/>
</g>
</svg>
