<svg fill="none" height="32" viewBox="0 0 32 32" width="32" xmlns="http://www.w3.org/2000/svg"><path d="m15.9375 4.03125c-3.0205.01225-6.01958.39573-7.58008 1.11523 0 0-3.35742 1.52838-3.35742 6.73442 0 6.197-.0045 13.9793 5.5625 15.4843 2.132.573 3.9655.6964 5.4395.6114 2.675-.151 3.998-.9707 3.998-.9707l-.0898-1.9766s-1.7339.611-3.8809.541c-2.127-.075-4.3678-.2346-4.7168-2.8906-.032-.247-.0479-.4971-.0469-.7461 4.507 1.119 8.3502.4874 9.4082.3594 2.954-.359 5.5255-2.2113 5.8535-3.9043.514-2.668.4707-6.5078.4707-6.5078 0-5.20604-3.3515-6.73442-3.3515-6.73442-1.6455-.7685-4.6885-1.12748-7.709-1.11523zm-3.2324 3.9707c1.0349.02775 2.0575.49075 2.6875 1.46875l.6094 1.0352.6074-1.0352c1.265-1.967 4.1002-1.84426 5.4492-.32226 1.244 1.44796.9668 2.38256.9668 8.85156v.002h-2.4473v-5.629c0-2.63496-3.3593-2.73672-3.3593.3653v3.2617h-2.4317v-3.2617c0-3.10202-3.3574-3.00221-3.3574-.3672v5.6289h-2.45314c0-6.474-.2722-7.4146.9668-8.85156.67954-.766 1.72684-1.17424 2.76174-1.14649z" fill="#fff"/></svg>