<svg fill="none" height="32" viewBox="0 0 32 32" width="32" xmlns="http://www.w3.org/2000/svg"><path d="m28.8223 7.54175c-.422.18716-.8559.34513-1.2992.47338.5248-.59357.925-1.29198 1.1693-2.05625.0547-.17131-.002-.35882-.1428-.47087-.1407-.11212-.3361-.12555-.4909-.03379-.9415.55838-1.9572.95967-3.0223 1.19432-1.0728-1.04831-2.5299-1.64491-4.0363-1.64491-3.1797 0-5.7666 2.58681-5.7666 5.76637 0 .2505.0159.4995.0473.7451-3.9457-.3465-7.61395-2.28581-10.13291-5.37572-.08978-.11014-.22807-.1695-.36966-.15814-.14168.01109-.26897.09098-.34054.21377-.5109.87665-.78099 1.8793-.78099 2.89945 0 1.38944.49608 2.70774 1.37239 3.73794-.26646-.0923-.52503-.2077-.77181-.3447-.13249-.0737-.29418-.0726-.42581.0029-.13171.0755-.21429.2143-.21775.366-.00061.0256-.00061.0511-.00061.077 0 2.0741 1.11625 3.9413 2.82285 4.959-.14661-.0146-.29314-.0358-.43871-.0636-.15008-.0287-.30441.0239-.40562.1383-.10138.1144-.13492.2739-.08821.4194.63169 1.9722 2.25805 3.4229 4.22418 3.8651-1.6307 1.0214-3.49553 1.5564-5.45316 1.5564-.40848 0-.8193-.024-1.22136-.0716-.19973-.0237-.39071.0942-.45873.2841-.06803.1901.00407.4019.17399.5108 2.5149 1.6125 5.42284 2.4649 8.40926 2.4649 5.871 0 9.5438-2.7686 11.5909-5.0911 2.5528-2.896 4.0168-6.7292 4.0168-10.5167 0-.1582-.0024-.318-.0072-.4772 1.0071-.7588 1.8742-1.67717 2.5798-2.73268.1072-.1603.0956-.37217-.0286-.51973-.124-.14766-.3306-.1954-.507-.11724z" fill="#fff"/></svg>